# xmcd CD database file
#
# Track frame offsets:
#	150
#	37955
#	67521
#	102304
#	142338
#	169220
#	201916
#	225522
#	257662
#	287801
#	320293
#
# Disc length: 4750 seconds
#
# Revision: 0
# Processed by: cddbd v1.5.2PL0 Copyright (c) Steve Scherf et al.
# Submitted via: CDex 1.70beta2
#
DISCID=99128c0b
DTITLE=Lionel Hampton - Three Classic Albums plus CD1
DYEAR=1955
DGENRE=Jazz
TTITLE0=Avalon
TTITLE1=Just You, Just Me
TTITLE2=Blues for Benny
TTITLE3=I Got Rhythm
TTITLE4=Moonglow
TTITLE5=Airmail Special
TTITLE6=The Man I Love
TTITLE7=Body and Soul
TTITLE8=Plaid
TTITLE9=Somebody Loves Me
TTITLE10=Deep Purple
EXTD=YEAR: 1955
EXTT0=
EXTT1=
EXTT2=
EXTT3=
EXTT4=
EXTT5=
EXTT6=
EXTT7=
EXTT8=
EXTT9=
EXTT10=
PLAYORDER=
